<?xml version="1.0" encoding="UTF-8"?>
<svg width="181px" height="161px" viewBox="0 0 181 161" version="1.1" xmlns="http://www.w3.org/2000/svg" xmlns:xlink="http://www.w3.org/1999/xlink">
    <!-- Generator: Sketch 51.3 (57544) - http://www.bohemiancoding.com/sketch -->
    <title>Group 11</title>
    <desc>Created with Sketch.</desc>
    <defs>
        <polygon id="path-1" points="0 161 181 161 181 0 0 0"></polygon>
    </defs>
    <g id="Mobile" stroke="none" stroke-width="1" fill="none" fill-rule="evenodd">
        <g id="Windows-icon-1" transform="translate(-201.000000, -1215.000000)">
            <g id="Group-11" transform="translate(201.000000, 1215.000000)">
                <path d="M35,40 L35,45.4545455 L29.3333333,45.4545455 C26.0952381,45.4545455 23.3968254,48.1818182 23.3968254,51.4545455 L23.3968254,92.9090909 C21.5079365,93.1818182 19.6190476,93.4545455 18,94 L18,51.4545455 C18,45.1818182 23.1269841,40 29.3333333,40 L35,40 Z" id="Fill-1" fill="#000000"></path>
                <mask id="mask-2" fill="white">
                    <use xlink:href="#path-1"></use>
                </mask>
                <g id="Clip-4"></g>
                <polygon id="Fill-3" fill="#000000" mask="url(#mask-2)" points="60 153 121 153 121 148 60 148"></polygon>
                <path d="M163,51.5126904 L163,94 C161.380952,93.4517766 159.492063,93.177665 157.603175,92.9035533 L157.603175,51.5126904 C157.603175,48.2233503 154.904762,45.4822335 151.666667,45.4822335 L146,45.4822335 L146,40 L151.666667,40 C158.142857,40 163,45.2081218 163,51.5126904" id="Fill-5" fill="#000000" mask="url(#mask-2)"></path>
                <path d="M126.338798,17.1881188 L75.5191257,17.1881188 C73.8797814,17.1881188 72.7868852,16.0792079 72.7868852,14.4158416 C72.7868852,12.7524752 73.8797814,11.6435644 75.5191257,11.6435644 L126.065574,11.6435644 C127.704918,11.6435644 128.797814,12.7524752 128.797814,14.4158416 C129.071038,15.8019802 127.704918,17.1881188 126.338798,17.1881188 Z M68.1420765,15.8019802 C68.1420765,17.4653465 67.0491803,18.5742574 65.4098361,18.5742574 C63.7704918,18.5742574 62.6775956,17.4653465 62.6775956,15.8019802 L62.6775956,12.1980198 C62.6775956,10.5346535 63.7704918,9.42574257 65.4098361,9.42574257 C67.0491803,9.42574257 68.1420765,10.5346535 68.1420765,12.1980198 L68.1420765,15.8019802 Z M56.3934426,15.8019802 C56.3934426,17.4653465 55.3005464,18.5742574 53.6612022,18.5742574 C52.0218579,18.5742574 50.9289617,17.4653465 50.9289617,15.8019802 L50.9289617,12.1980198 C50.9289617,10.5346535 52.0218579,9.42574257 53.6612022,9.42574257 C55.3005464,9.42574257 56.3934426,10.5346535 56.3934426,12.1980198 L56.3934426,15.8019802 Z M137.26776,0 L42.7322404,0 C41.0928962,0 40,1.38613861 40,2.77227723 L40,25.2277228 C40,26.8910891 41.0928962,28 42.7322404,28 L137.26776,28 C138.63388,28 140,26.8910891 140,25.2277228 L140,2.77227723 C140,1.38613861 138.63388,0 137.26776,0 Z" id="Fill-6" fill="#000000" mask="url(#mask-2)"></path>
                <path d="M126.338798,48.1881188 L75.5191257,48.1881188 C73.8797814,48.1881188 72.7868852,47.0792079 72.7868852,45.4158416 C72.7868852,43.7524752 73.8797814,42.6435644 75.5191257,42.6435644 L126.065574,42.6435644 C127.704918,42.6435644 128.797814,43.7524752 128.797814,45.4158416 C129.071038,46.8019802 127.704918,48.1881188 126.338798,48.1881188 Z M68.1420765,46.8019802 C68.1420765,48.4653465 67.0491803,49.5742574 65.4098361,49.5742574 C63.7704918,49.5742574 62.6775956,48.4653465 62.6775956,46.8019802 L62.6775956,43.1980198 C62.6775956,41.5346535 63.7704918,40.4257426 65.4098361,40.4257426 C67.0491803,40.4257426 68.1420765,41.5346535 68.1420765,43.1980198 L68.1420765,46.8019802 Z M56.3934426,46.8019802 C56.3934426,48.4653465 55.3005464,49.5742574 53.6612022,49.5742574 C52.0218579,49.5742574 50.9289617,48.4653465 50.9289617,46.8019802 L50.9289617,43.1980198 C50.9289617,41.5346535 52.0218579,40.4257426 53.6612022,40.4257426 C55.3005464,40.4257426 56.3934426,41.5346535 56.3934426,43.1980198 L56.3934426,46.8019802 Z M137.26776,31 L42.7322404,31 C41.0928962,31 40,32.1089109 40,33.7722772 L40,56.2277228 C40,57.6138614 41.0928962,59 42.7322404,59 L137.26776,59 C138.63388,59 140,57.6138614 140,56.2277228 L140,33.7722772 C140,32.3861386 138.63388,31 137.26776,31 Z" id="Fill-7" fill="#000000" mask="url(#mask-2)"></path>
                <path d="M126.338798,80.1881188 L75.5191257,80.1881188 C73.8797814,80.1881188 72.7868852,79.0792079 72.7868852,77.4158416 C72.7868852,75.7524752 73.8797814,74.6435644 75.5191257,74.6435644 L126.065574,74.6435644 C127.704918,74.6435644 128.797814,75.7524752 128.797814,77.4158416 C129.071038,78.8019802 127.704918,80.1881188 126.338798,80.1881188 Z M68.1420765,78.8019802 C68.1420765,80.4653465 67.0491803,81.5742574 65.4098361,81.5742574 C63.7704918,81.5742574 62.6775956,80.4653465 62.6775956,78.8019802 L62.6775956,75.1980198 C62.6775956,73.5346535 63.7704918,72.4257426 65.4098361,72.4257426 C67.0491803,72.4257426 68.1420765,73.5346535 68.1420765,75.1980198 L68.1420765,78.8019802 Z M56.3934426,78.8019802 C56.3934426,80.4653465 55.3005464,81.5742574 53.6612022,81.5742574 C52.0218579,81.5742574 50.9289617,80.4653465 50.9289617,78.8019802 L50.9289617,75.1980198 C50.9289617,73.5346535 52.0218579,72.4257426 53.6612022,72.4257426 C55.3005464,72.4257426 56.3934426,73.5346535 56.3934426,75.1980198 L56.3934426,78.8019802 Z M137.26776,63 L42.7322404,63 C41.0928962,63 40,64.1089109 40,65.7722772 L40,88.2277228 C40,89.6138614 41.0928962,91 42.7322404,91 L137.26776,91 C138.63388,91 140,89.6138614 140,88.2277228 L140,65.7722772 C140,64.1089109 138.63388,63 137.26776,63 Z" id="Fill-8" fill="#000000" mask="url(#mask-2)"></path>
                <path d="M164.893492,130.143725 C167.996556,127.284318 169.958106,123.183725 169.958106,118.618031 C169.958106,110.006785 163.021846,103 154.502724,103 C145.978154,103 139.041894,110.006785 139.041894,118.618031 C139.041894,123.183725 141.003444,127.284318 144.106508,130.143725 C134.947157,131.92707 128,140.078719 128,149.845836 L128,158.768066 C128,160.003749 128.986224,161 130.209468,161 L178.793256,161 C180.013776,161 181,160.003749 181,158.768066 L181,149.845836 C181,140.078719 174.055567,131.92707 164.893492,130.143725" id="Fill-9" fill="#000000" mask="url(#mask-2)"></path>
                <path d="M36.891596,130.143725 C39.9945001,127.284318 41.9559496,123.183725 41.9559496,118.618031 C41.9559496,110.006785 35.0200463,103 26.5013621,103 C17.9799537,103 11.0413261,110.006785 11.0413261,118.618031 C11.0413261,123.183725 13.0054999,127.284318 16.108404,130.143725 C6.94680031,131.92707 0,140.078719 0,149.845836 L0,158.768066 C0,160.003749 0.988897456,161 2.20935492,161 L50.7906451,161 C52.0111025,161 53,160.003749 53,158.768066 L53,149.845836 C53,140.078719 46.0531997,131.92707 36.891596,130.143725" id="Fill-10" fill="#000000" mask="url(#mask-2)"></path>
            </g>
        </g>
    </g>
</svg>